<svg width="663" height="663" viewBox="0 0 663 663" fill="none" xmlns="http://www.w3.org/2000/svg">
<g clip-path="url(#clip0_9_90)">
<path opacity="0.5" d="M0 323C0 501.388 144.612 646 323 646C501.388 646 646 501.388 646 323C646 144.612 501.388 0 323 0C144.612 0 0 144.612 0 323Z" stroke="url(#paint0_linear_9_90)" stroke-width="16.15" stroke-dasharray="2.69 16.15"/>
<path d="M316.611 315.272C316.611 327.688 313.891 337.256 308.451 343.976C303.075 350.632 295.587 353.96 285.987 353.96C279.267 353.96 273.987 352.68 270.147 350.12C266.371 347.56 264.483 344.232 264.483 340.136C264.483 337.576 265.251 335.368 266.787 333.512C268.387 331.592 270.467 330.632 273.027 330.632C275.651 330.632 277.699 331.336 279.171 332.744C280.707 334.088 281.475 335.72 281.475 337.64C281.475 339.496 281.219 341.128 280.707 342.536H277.827C277.379 343.496 277.155 344.744 277.155 346.28C277.155 347.752 277.827 349.096 279.171 350.312C280.579 351.464 282.627 352.04 285.315 352.04C289.603 352.04 292.707 349.704 294.627 345.032C296.611 340.36 297.635 332.232 297.699 320.648C294.371 325.832 289.315 328.424 282.531 328.424C276.771 328.424 272.035 326.568 268.323 322.856C264.611 319.144 262.755 314.056 262.755 307.592C262.755 299.912 265.283 294.184 270.339 290.408C275.459 286.632 281.987 284.744 289.923 284.744C307.715 284.744 316.611 294.92 316.611 315.272ZM288.099 325.256C290.275 325.256 292.099 324.456 293.571 322.856C295.107 321.192 296.131 319.272 296.643 317.096C297.219 314.856 297.507 311.976 297.507 308.456C297.507 304.872 297.475 302.408 297.411 301.064C297.411 299.656 297.347 298.024 297.219 296.168C297.091 294.248 296.867 292.872 296.547 292.04C296.227 291.144 295.811 290.216 295.299 289.256C294.339 287.592 292.579 286.76 290.019 286.76C287.139 286.76 284.995 287.912 283.587 290.216C282.499 292.072 281.859 295.272 281.667 299.816C281.603 301.416 281.571 303.592 281.571 306.344C281.571 309.032 281.571 311.112 281.571 312.584C281.635 314.056 281.731 315.624 281.859 317.288C281.987 318.888 282.179 320.104 282.435 320.936C282.755 321.768 283.139 322.568 283.587 323.336C284.419 324.616 285.923 325.256 288.099 325.256ZM350.999 353.96C341.719 353.96 334.647 350.824 329.783 344.552C324.983 338.28 322.583 329.512 322.583 318.248C322.583 306.984 325.175 298.6 330.359 293.096C335.543 287.528 342.615 284.744 351.575 284.744C360.599 284.744 367.671 287.496 372.791 293C377.975 298.504 380.567 307.272 380.567 319.304C380.567 331.336 377.975 340.136 372.791 345.704C367.607 351.208 360.343 353.96 350.999 353.96ZM342.263 315.752V324.296C342.263 330.504 342.295 334.888 342.359 337.448C342.487 340.008 342.839 342.664 343.415 345.416C343.991 348.168 344.919 349.96 346.199 350.792C347.479 351.56 348.983 351.944 350.711 351.944C352.439 351.944 353.719 351.848 354.551 351.656C355.447 351.464 356.215 351.08 356.855 350.504C357.559 349.864 358.135 349.256 358.583 348.68C359.031 348.04 359.383 347.08 359.639 345.8C359.959 344.52 360.215 343.336 360.407 342.248C360.599 341.16 360.727 339.56 360.791 337.448C360.919 333.352 360.983 329.224 360.983 325.064V316.616C360.983 304.072 360.503 295.976 359.543 292.328C358.647 288.616 356.023 286.76 351.671 286.76C347.319 286.76 344.663 288.648 343.703 292.424C342.743 296.2 342.263 303.976 342.263 315.752Z" fill="url(#paint1_linear_9_90)"/>
<path d="M322.946 429.909C382.02 429.909 429.909 382.02 429.909 322.945C429.909 263.871 382.02 215.982 322.946 215.982C263.871 215.982 215.982 263.871 215.982 322.945C215.982 382.02 263.871 429.909 322.946 429.909Z" stroke="#0059FF" stroke-width="14.3488" stroke-dasharray="2.39 19.13"/>
<path opacity="0.3" d="M322.949 561.492C454.696 561.492 561.497 454.691 561.497 322.945C561.497 191.198 454.696 84.3965 322.949 84.3965C191.203 84.3965 84.4016 191.198 84.4016 322.945C84.4016 454.691 191.203 561.492 322.949 561.492Z" stroke="url(#paint2_linear_9_90)" stroke-width="6.1476"/>
<path d="M306.207 525.413C305.315 525.34 304.435 525.105 303.567 524.706C302.699 524.308 301.925 523.696 301.244 522.87C300.564 522.051 300.049 520.962 299.699 519.605C299.35 518.248 299.248 516.57 299.394 514.573C299.535 512.639 299.845 510.935 300.323 509.46C300.793 507.992 301.41 506.77 302.172 505.793C302.927 504.816 303.812 504.097 304.829 503.638C305.838 503.178 306.955 502.993 308.181 503.082C309.399 503.172 310.469 503.492 311.39 504.044C312.303 504.602 313.033 505.336 313.579 506.245C314.117 507.16 314.43 508.198 314.516 509.358L311.923 509.168C311.762 508.152 311.359 507.293 310.712 506.59C310.058 505.894 309.157 505.504 308.01 505.42C306.331 505.297 304.953 505.933 303.875 507.328C302.791 508.723 302.151 510.759 301.955 513.436L302.125 513.449C302.565 512.883 303.074 512.404 303.651 512.012C304.228 511.619 304.858 511.331 305.541 511.146C306.223 510.961 306.94 510.896 307.691 510.951C308.938 511.043 310.059 511.435 311.055 512.127C312.044 512.826 312.81 513.741 313.355 514.87C313.891 516.006 314.108 517.275 314.006 518.678C313.908 520.01 313.522 521.206 312.846 522.268C312.163 523.336 311.255 524.159 310.123 524.738C308.984 525.317 307.679 525.542 306.207 525.413ZM306.378 523.075C307.271 523.141 308.091 522.976 308.839 522.583C309.579 522.195 310.186 521.642 310.659 520.921C311.124 520.208 311.389 519.398 311.456 518.491C311.522 517.584 311.384 516.745 311.042 515.972C310.692 515.205 310.186 514.577 309.524 514.087C308.854 513.604 308.073 513.329 307.18 513.264C306.507 513.214 305.871 513.3 305.271 513.519C304.671 513.746 304.137 514.073 303.672 514.502C303.198 514.937 302.816 515.44 302.525 516.01C302.234 516.586 302.065 517.197 302.018 517.842C301.956 518.692 302.103 519.504 302.459 520.278C302.809 521.051 303.324 521.694 304.006 522.207C304.681 522.719 305.471 523.009 306.378 523.075Z" fill="url(#paint3_linear_9_90)"/>
<path d="M281.499 498.976C283.066 499.326 284.305 500.05 285.218 501.149C286.129 502.255 286.694 503.687 286.914 505.446C287.133 507.212 286.984 509.253 286.47 511.569C285.958 513.87 285.23 515.771 284.285 517.27C283.332 518.775 282.209 519.834 280.915 520.448C279.614 521.067 278.186 521.203 276.634 520.857C275.081 520.51 273.85 519.781 272.94 518.668C272.023 517.561 271.454 516.124 271.236 514.358C271.009 512.598 271.151 510.566 271.663 508.265C272.178 505.949 272.909 504.038 273.855 502.532C274.799 501.033 275.918 499.976 277.212 499.362C278.503 498.755 279.933 498.627 281.499 498.976ZM280.99 501.264C279.438 500.918 278.065 501.397 276.873 502.703C275.68 504.009 274.775 506.048 274.159 508.821C273.749 510.666 273.597 512.28 273.704 513.665C273.804 515.048 274.146 516.161 274.729 517.004C275.306 517.846 276.107 518.382 277.133 518.611C278.672 518.954 280.044 518.463 281.248 517.138C282.45 515.82 283.359 513.778 283.974 511.012C284.384 509.168 284.539 507.557 284.437 506.181C284.336 504.805 283.996 503.7 283.418 502.865C282.832 502.028 282.023 501.495 280.99 501.264Z" fill="url(#paint4_linear_9_90)"/>
<path d="M234.563 481.282L240.432 484.582L229.768 503.616L223.639 500.171C221.794 499.133 220.429 497.865 219.543 496.365C218.654 494.871 218.258 493.218 218.353 491.406C218.445 489.6 219.043 487.711 220.147 485.741C221.257 483.758 222.567 482.25 224.074 481.215C225.578 480.187 227.221 479.668 229.001 479.658C230.777 479.655 232.631 480.196 234.563 481.282ZM236.983 485.332L233.566 483.41C231.993 482.526 230.52 482.097 229.146 482.123C227.772 482.149 226.517 482.58 225.381 483.416C224.245 484.252 223.243 485.445 222.375 486.994C221.514 488.531 221.024 489.995 220.904 491.386C220.781 492.783 221.051 494.059 221.714 495.214C222.374 496.376 223.447 497.374 224.933 498.209L228.61 500.277L236.983 485.332Z" fill="url(#paint5_linear_9_90)"/>
<path d="M196.859 482.384L210.179 465.104L212.269 466.72L198.949 484.001L196.859 482.384Z" fill="url(#paint6_linear_9_90)"/>
<path d="M195.101 451.923L197.021 453.918L175.772 463.303L173.881 461.338L184.019 440.409L185.94 442.404L177.25 459.861L177.369 459.984L195.101 451.923ZM188.261 457.106L180.519 449.062L182.205 447.434L189.947 455.478L188.261 457.106Z" fill="url(#paint7_linear_9_90)"/>
<path d="M157.498 433.751C156.695 434.484 156.315 435.394 156.358 436.482C156.402 437.569 156.807 438.65 157.575 439.725C158.136 440.511 158.754 441.108 159.429 441.516C160.1 441.917 160.776 442.124 161.456 442.134C162.131 442.14 162.752 441.939 163.318 441.534C163.791 441.195 164.117 440.79 164.297 440.321C164.467 439.85 164.536 439.354 164.505 438.834C164.469 438.319 164.382 437.813 164.246 437.316C164.104 436.824 163.959 436.382 163.81 435.991L163.007 433.84C162.798 433.291 162.598 432.656 162.407 431.937C162.212 431.212 162.113 430.456 162.111 429.672C162.099 428.885 162.257 428.116 162.585 427.366C162.913 426.615 163.493 425.942 164.324 425.346C165.283 424.659 166.328 424.29 167.461 424.239C168.589 424.181 169.724 424.469 170.865 425.101C172.003 425.728 173.058 426.724 174.032 428.088C174.94 429.359 175.522 430.607 175.777 431.831C176.027 433.05 175.976 434.188 175.622 435.245C175.265 436.296 174.626 437.204 173.706 437.969L172.121 435.749C172.749 435.211 173.142 434.589 173.3 433.881C173.448 433.172 173.412 432.438 173.193 431.678C172.963 430.916 172.596 430.183 172.093 429.478C171.507 428.657 170.847 428.015 170.115 427.553C169.378 427.094 168.633 426.846 167.882 426.807C167.124 426.774 166.422 426.988 165.776 427.452C165.187 427.874 164.825 428.382 164.691 428.976C164.557 429.57 164.566 430.219 164.719 430.922C164.872 431.625 165.085 432.351 165.358 433.099L166.295 435.73C166.887 437.403 167.103 438.909 166.941 440.247C166.78 441.586 166.102 442.684 164.907 443.54C163.915 444.252 162.857 444.604 161.734 444.596C160.601 444.586 159.504 444.272 158.442 443.652C157.37 443.031 156.429 442.154 155.62 441.021C154.803 439.877 154.282 438.713 154.056 437.529C153.824 436.349 153.875 435.247 154.208 434.222C154.536 433.191 155.138 432.341 156.012 431.671L157.498 433.751Z" fill="url(#paint8_linear_9_90)"/>
<path d="M149.871 382.215L152.041 388.588L131.396 395.644L129.129 388.988C128.447 386.984 128.276 385.129 128.617 383.421C128.952 381.716 129.759 380.22 131.04 378.934C132.313 377.651 134.019 376.644 136.156 375.914C138.306 375.179 140.288 374.929 142.102 375.165C143.909 375.403 145.478 376.113 146.811 377.293C148.136 378.477 149.157 380.117 149.871 382.215ZM148.972 386.845L147.708 383.134C147.126 381.426 146.315 380.124 145.274 379.226C144.233 378.328 143.011 377.812 141.606 377.676C140.202 377.54 138.66 377.76 136.98 378.334C135.313 378.904 133.971 379.666 132.954 380.622C131.929 381.58 131.279 382.71 131.002 384.013C130.719 385.318 130.852 386.778 131.402 388.391L132.762 392.385L148.972 386.845Z" fill="url(#paint9_linear_9_90)"/>
<path d="M143.83 361.254L122.376 365.223L119.988 352.274L122.293 351.848L124.202 362.199L131.451 360.857L129.666 351.177L131.97 350.75L133.755 360.431L141.046 359.082L139.107 348.563L141.412 348.137L143.83 361.254Z" fill="url(#paint10_linear_9_90)"/>
<path d="M126.684 292.412C125.946 292.566 125.273 292.803 124.666 293.122C124.053 293.433 123.517 293.828 123.057 294.306C122.598 294.777 122.227 295.329 121.943 295.962C121.659 296.595 121.474 297.304 121.388 298.087C121.247 299.372 121.45 300.577 121.998 301.702C122.546 302.827 123.432 303.772 124.656 304.535C125.88 305.299 127.43 305.784 129.308 305.991C131.186 306.198 132.805 306.059 134.166 305.573C135.527 305.087 136.598 304.344 137.38 303.344C138.161 302.344 138.626 301.174 138.773 299.832C138.909 298.59 138.765 297.466 138.339 296.462C137.907 295.45 137.234 294.625 136.317 293.988C135.395 293.343 134.27 292.948 132.943 292.802L133.201 292.016L132.485 298.539L130.155 298.282L131.062 290.022L133.392 290.279C135.178 290.476 136.689 291.028 137.925 291.936C139.163 292.837 140.071 293.995 140.652 295.409C141.226 296.816 141.419 298.38 141.23 300.103C141.019 302.023 140.382 303.661 139.318 305.015C138.256 306.363 136.847 307.351 135.092 307.979C133.337 308.6 131.316 308.785 129.029 308.533C127.313 308.344 125.796 307.944 124.477 307.334C123.152 306.717 122.052 305.931 121.178 304.977C120.304 304.024 119.673 302.939 119.284 301.725C118.896 300.51 118.778 299.207 118.931 297.817C119.057 296.673 119.347 295.626 119.801 294.676C120.25 293.718 120.83 292.885 121.544 292.178C122.251 291.462 123.068 290.891 123.994 290.465C124.912 290.037 125.908 289.783 126.982 289.701L126.684 292.412Z" fill="url(#paint11_linear_9_90)"/>
<path d="M144.259 280.579L143.56 283.259L124.476 269.979L125.165 267.341L148.295 265.116L147.595 267.797L128.181 269.452L128.138 269.617L144.259 280.579ZM136.273 277.43L139.092 266.627L141.359 267.221L138.54 278.024L136.273 277.43Z" fill="url(#paint12_linear_9_90)"/>
<path d="M151.462 256.631L131.387 248.085L134.266 241.299C134.931 239.729 135.746 238.555 136.709 237.777C137.665 236.995 138.71 236.56 139.843 236.471C140.976 236.382 142.134 236.59 143.317 237.093C144.5 237.597 145.446 238.285 146.156 239.158C146.865 240.032 147.269 241.08 147.368 242.303C147.46 243.523 147.176 244.911 146.515 246.467L144.186 251.959L141.99 251.025L144.286 245.611C144.741 244.539 144.951 243.609 144.914 242.821C144.881 242.027 144.639 241.361 144.189 240.822C143.735 240.274 143.106 239.828 142.302 239.486C141.498 239.144 140.732 238.995 140.003 239.04C139.274 239.085 138.606 239.368 138 239.889C137.386 240.408 136.849 241.21 136.389 242.295L134.575 246.571L152.493 254.199L151.462 256.631ZM146.454 243.338L157.569 242.234L156.371 245.058L145.289 246.084L146.454 243.338Z" fill="url(#paint13_linear_9_90)"/>
<path d="M163.634 230.928L162.193 233.293L147.746 215.071L149.165 212.742L171.948 217.281L170.507 219.646L151.444 215.634L151.356 215.78L163.634 230.928ZM156.894 225.609L162.703 216.074L164.703 217.297L158.894 226.831L156.894 225.609Z" fill="url(#paint14_linear_9_90)"/>
<path d="M171.5 183.04L188.259 197.011L186.625 198.978L165.87 197.154L165.734 197.318L178.892 208.287L177.203 210.319L160.445 196.348L162.079 194.382L182.894 196.2L183.03 196.037L169.839 185.04L171.5 183.04Z" fill="url(#paint15_linear_9_90)"/>
<path d="M181.955 177.154L180.393 175.408L192.57 164.477L194.133 166.224L189.027 170.807L202.01 185.322L200.044 187.087L187.061 172.572L181.955 177.154Z" fill="url(#paint16_linear_9_90)"/>
<path d="M211.081 151.014L223.105 169.22L220.903 170.679L208.879 152.473L211.081 151.014Z" fill="url(#paint17_linear_9_90)"/>
<path d="M240.406 159.142L237.899 160.319L235.903 137.152L238.372 135.993L254.871 152.349L252.363 153.526L238.677 139.663L238.523 139.735L240.406 159.142ZM237.72 150.987L247.825 146.242L248.819 148.364L238.713 153.11L237.72 150.987Z" fill="url(#paint18_linear_9_90)"/>
<path d="M296.599 137.452C295.749 137.578 294.942 137.485 294.179 137.174C293.414 136.856 292.77 136.377 292.245 135.736C291.727 135.095 291.406 134.349 291.281 133.498C291.155 132.641 291.248 131.834 291.56 131.077C291.879 130.313 292.359 129.671 293 129.153C293.641 128.628 294.387 128.302 295.237 128.177C296.094 128.051 296.901 128.147 297.659 128.466C298.422 128.777 299.063 129.253 299.581 129.895C300.105 130.528 300.43 131.274 300.556 132.131C300.68 132.981 300.584 133.789 300.265 134.554C299.954 135.318 299.478 135.962 298.837 136.487C298.203 137.004 297.457 137.326 296.599 137.452Z" fill="url(#paint19_linear_9_90)"/>
<path d="M353.185 119.91C354.069 120.048 354.93 120.347 355.766 120.808C356.603 121.269 357.331 121.936 357.949 122.81C358.568 123.676 359.003 124.799 359.252 126.178C359.502 127.558 359.481 129.238 359.19 131.22C358.908 133.138 358.475 134.815 357.891 136.251C357.315 137.681 356.611 138.855 355.78 139.773C354.956 140.693 354.02 141.345 352.973 141.729C351.933 142.114 350.805 142.217 349.59 142.037C348.381 141.859 347.338 141.461 346.459 140.844C345.589 140.22 344.915 139.435 344.436 138.489C343.966 137.536 343.73 136.479 343.729 135.315L346.3 135.694C346.387 136.719 346.727 137.606 347.32 138.354C347.922 139.096 348.792 139.551 349.93 139.719C351.595 139.964 353.016 139.431 354.192 138.118C355.376 136.806 356.163 134.822 356.553 132.166L356.384 132.141C355.904 132.674 355.362 133.114 354.758 133.463C354.154 133.812 353.505 134.054 352.81 134.188C352.116 134.323 351.396 134.335 350.651 134.225C349.414 134.043 348.325 133.57 347.382 132.806C346.447 132.037 345.749 131.069 345.288 129.903C344.836 128.73 344.712 127.448 344.917 126.057C345.111 124.736 345.583 123.571 346.335 122.562C347.094 121.547 348.059 120.792 349.23 120.297C350.408 119.803 351.726 119.674 353.185 119.91ZM352.844 122.229C351.959 122.099 351.129 122.203 350.354 122.541C349.587 122.873 348.942 123.381 348.418 124.064C347.902 124.742 347.578 125.531 347.446 126.43C347.314 127.33 347.39 128.177 347.675 128.973C347.969 129.763 348.427 130.426 349.052 130.964C349.685 131.495 350.444 131.826 351.329 131.956C351.996 132.054 352.637 132.016 353.252 131.841C353.867 131.659 354.423 131.371 354.918 130.978C355.422 130.578 355.84 130.105 356.171 129.558C356.504 129.004 356.717 128.407 356.811 127.768C356.935 126.924 356.848 126.104 356.548 125.306C356.256 124.509 355.789 123.83 355.146 123.269C354.511 122.708 353.743 122.362 352.844 122.229Z" fill="url(#paint20_linear_9_90)"/>
<path d="M375.899 148.086C374.362 147.623 373.179 146.81 372.349 145.648C371.521 144.479 371.062 143.009 370.97 141.238C370.881 139.46 371.178 137.436 371.86 135.164C372.539 132.906 373.403 131.063 374.455 129.637C375.515 128.206 376.712 127.231 378.047 126.714C379.39 126.192 380.823 126.16 382.347 126.619C383.87 127.078 385.044 127.896 385.87 129.072C386.705 130.243 387.167 131.718 387.256 133.495C387.354 135.268 387.064 137.283 386.385 139.542C385.703 141.813 384.835 143.666 383.782 145.099C382.731 146.525 381.538 147.497 380.203 148.015C378.871 148.526 377.436 148.55 375.899 148.086ZM376.573 145.842C378.097 146.301 379.5 145.923 380.785 144.708C382.069 143.493 383.12 141.525 383.937 138.804C384.481 136.994 384.75 135.395 384.744 134.006C384.745 132.62 384.486 131.484 383.965 130.601C383.451 129.719 382.691 129.126 381.685 128.823C380.175 128.368 378.771 128.757 377.474 129.991C376.179 131.217 375.123 133.188 374.308 135.902C373.765 137.711 373.494 139.306 373.495 140.686C373.495 142.066 373.754 143.193 374.27 144.068C374.792 144.945 375.56 145.536 376.573 145.842Z" fill="url(#paint21_linear_9_90)"/>
<path d="M421.417 169.169L415.805 165.449L427.829 147.243L433.69 151.128C435.454 152.297 436.723 153.662 437.496 155.223C438.274 156.778 438.549 158.455 438.322 160.256C438.098 162.05 437.364 163.89 436.119 165.775C434.867 167.671 433.451 169.08 431.872 170.002C430.297 170.918 428.622 171.315 426.846 171.195C425.074 171.068 423.264 170.393 421.417 169.169ZM419.299 164.953L422.567 167.119C424.07 168.116 425.508 168.651 426.88 168.726C428.253 168.8 429.536 168.462 430.73 167.711C431.924 166.96 433.01 165.844 433.988 164.362C434.959 162.892 435.555 161.468 435.776 160.089C436.001 158.705 435.825 157.412 435.247 156.212C434.674 155.005 433.677 153.931 432.256 152.989L428.739 150.659L419.299 164.953Z" fill="url(#paint22_linear_9_90)"/>
<path d="M459.1 170.825L444.555 187.087L442.589 185.322L457.134 169.06L459.1 170.825Z" fill="url(#paint23_linear_9_90)"/>
<path d="M459.4 200.695L457.63 198.564L479.508 190.756L481.25 192.853L469.611 212.987L467.841 210.856L477.782 194.08L477.673 193.949L459.4 200.695ZM466.6 196.024L473.734 204.612L471.934 206.113L464.799 197.525L466.6 196.024Z" fill="url(#paint24_linear_9_90)"/>
<path d="M494.811 222.203C495.665 221.531 496.111 220.651 496.147 219.564C496.183 218.476 495.857 217.368 495.17 216.24C494.667 215.415 494.094 214.775 493.451 214.319C492.811 213.87 492.152 213.615 491.475 213.554C490.802 213.5 490.168 213.654 489.574 214.017C489.077 214.321 488.722 214.7 488.509 215.156C488.305 215.613 488.2 216.102 488.192 216.623C488.191 217.139 488.241 217.65 488.34 218.155C488.446 218.657 488.559 219.108 488.679 219.509L489.323 221.713C489.491 222.276 489.644 222.923 489.782 223.655C489.924 224.392 489.967 225.152 489.912 225.935C489.866 226.721 489.652 227.476 489.271 228.2C488.889 228.925 488.261 229.554 487.389 230.087C486.383 230.702 485.313 230.994 484.18 230.963C483.05 230.938 481.939 230.568 480.847 229.854C479.759 229.146 478.778 228.076 477.906 226.645C477.093 225.31 476.605 224.023 476.44 222.784C476.279 221.55 476.413 220.419 476.843 219.391C477.276 218.368 477.98 217.51 478.953 216.814L480.372 219.144C479.706 219.634 479.269 220.226 479.059 220.92C478.86 221.616 478.842 222.352 479.006 223.126C479.179 223.902 479.492 224.66 479.942 225.4C480.467 226.261 481.078 226.949 481.774 227.464C482.476 227.976 483.201 228.278 483.948 228.37C484.701 228.46 485.416 228.297 486.095 227.882C486.713 227.504 487.111 227.024 487.288 226.441C487.465 225.858 487.503 225.21 487.402 224.498C487.3 223.786 487.141 223.047 486.924 222.28L486.182 219.588C485.713 217.876 485.608 216.359 485.866 215.036C486.124 213.712 486.881 212.667 488.135 211.9C489.177 211.263 490.258 210.99 491.377 211.079C492.506 211.172 493.578 211.565 494.592 212.261C495.616 212.958 496.49 213.902 497.214 215.09C497.946 216.291 498.381 217.49 498.52 218.687C498.664 219.881 498.534 220.976 498.127 221.974C497.724 222.978 497.062 223.782 496.141 224.387L494.811 222.203Z" fill="url(#paint25_linear_9_90)"/>
<path d="M498.664 274.158L496.964 267.643L518.07 262.116L519.845 268.919C520.38 270.967 520.415 272.83 519.95 274.508C519.492 276.185 518.577 277.617 517.207 278.806C515.843 279.993 514.069 280.872 511.884 281.444C509.685 282.02 507.69 282.124 505.899 281.756C504.114 281.387 502.6 280.565 501.357 279.29C500.121 278.013 499.223 276.302 498.664 274.158ZM499.898 269.606L500.888 273.399C501.344 275.145 502.058 276.503 503.031 277.475C504.003 278.446 505.185 279.051 506.576 279.288C507.966 279.526 509.52 279.42 511.238 278.97C512.942 278.524 514.336 277.862 515.421 276.983C516.512 276.102 517.243 275.023 517.614 273.743C517.992 272.462 517.966 270.997 517.535 269.348L516.47 265.266L499.898 269.606Z" fill="url(#paint26_linear_9_90)"/>
<path d="M503.164 295.504L524.851 293.113L526.288 306.202L523.959 306.459L522.81 295.996L515.482 296.804L516.557 306.589L514.227 306.846L513.152 297.061L505.782 297.873L506.95 308.505L504.62 308.762L503.164 295.504Z" fill="url(#paint27_linear_9_90)"/>
<path d="M515.254 365.416C516.002 365.316 516.69 365.129 517.318 364.855C517.952 364.59 518.516 364.235 519.009 363.792C519.501 363.356 519.912 362.832 520.241 362.222C520.57 361.611 520.806 360.918 520.949 360.142C521.184 358.871 521.069 357.655 520.604 356.492C520.14 355.33 519.325 354.324 518.16 353.473C516.996 352.621 515.484 352.024 513.627 351.68C511.769 351.337 510.144 351.357 508.751 351.742C507.359 352.128 506.236 352.79 505.384 353.73C504.532 354.671 503.983 355.804 503.739 357.131C503.512 358.36 503.574 359.492 503.925 360.524C504.282 361.566 504.894 362.437 505.761 363.139C506.634 363.85 507.727 364.326 509.04 364.569L508.726 365.335L509.916 358.881L512.22 359.307L510.714 367.479L508.409 367.053C506.642 366.726 505.175 366.064 504.008 365.068C502.84 364.079 502.018 362.858 501.542 361.405C501.072 359.96 500.994 358.386 501.308 356.682C501.658 354.782 502.413 353.195 503.572 351.922C504.73 350.655 506.207 349.773 508.004 349.275C509.799 348.783 511.828 348.747 514.09 349.166C515.787 349.48 517.271 349.989 518.543 350.694C519.819 351.407 520.859 352.271 521.661 353.286C522.463 354.301 523.014 355.429 523.312 356.669C523.611 357.908 523.633 359.216 523.38 360.592C523.171 361.724 522.806 362.747 522.283 363.661C521.766 364.584 521.126 365.372 520.363 366.025C519.605 366.687 518.75 367.197 517.795 367.555C516.848 367.914 515.836 368.095 514.759 368.098L515.254 365.416Z" fill="url(#paint28_linear_9_90)"/>
<path d="M496.867 375.933L497.76 373.311L515.823 387.951L514.944 390.532L491.715 391.06L492.608 388.438L512.09 388.206L512.145 388.045L496.867 375.933ZM504.602 379.657L501.003 390.226L498.785 389.468L502.384 378.9L504.602 379.657Z" fill="url(#paint29_linear_9_90)"/>
<path d="M487.941 399.292L507.338 409.282L503.971 415.841C503.193 417.357 502.295 418.469 501.278 419.175C500.267 419.885 499.194 420.242 498.057 420.248C496.921 420.254 495.781 419.963 494.638 419.374C493.495 418.785 492.602 418.03 491.958 417.107C491.314 416.184 490.987 415.109 490.978 413.882C490.976 412.659 491.36 411.295 492.132 409.791L494.856 404.483L496.978 405.576L494.293 410.808C493.761 411.844 493.484 412.756 493.463 413.544C493.438 414.338 493.631 415.021 494.041 415.591C494.454 416.171 495.048 416.661 495.825 417.061C496.602 417.461 497.355 417.666 498.085 417.674C498.815 417.683 499.502 417.449 500.145 416.974C500.794 416.501 501.388 415.741 501.927 414.692L504.048 410.559L486.735 401.642L487.941 399.292ZM491.965 412.916L480.8 413.206L482.201 410.476L493.327 410.263L491.965 412.916Z" fill="url(#paint30_linear_9_90)"/>
<path d="M473.929 424.039L475.539 421.785L488.617 441.014L487.032 443.233L464.642 437.043L466.252 434.789L484.969 440.182L485.068 440.044L473.929 424.039ZM480.262 429.836L473.773 438.922L471.868 437.556L478.357 428.471L480.262 429.836Z" fill="url(#paint31_linear_9_90)"/>
<path d="M461.871 470.53L446.177 455.373L447.95 453.531L468.517 456.865L468.665 456.711L456.343 444.811L458.175 442.907L473.868 458.064L472.095 459.906L451.469 456.573L451.321 456.727L463.674 468.657L461.871 470.53Z" fill="url(#paint32_linear_9_90)"/>
<path d="M451.736 476.33L453.166 478.186L440.223 488.198L438.792 486.342L444.219 482.144L432.33 466.72L434.42 465.104L446.309 480.528L451.736 476.33Z" fill="url(#paint33_linear_9_90)"/>
<path d="M420.78 500.272L410.116 481.237L412.419 479.942L423.083 498.977L420.78 500.272Z" fill="url(#paint34_linear_9_90)"/>
<path d="M392.125 490.022L394.712 489.031L395.013 512.28L392.466 513.256L377.203 495.739L379.789 494.748L392.429 509.574L392.588 509.513L392.125 490.022ZM394.21 498.35L383.784 502.344L382.948 500.155L393.374 496.16L394.21 498.35Z" fill="url(#paint35_linear_9_90)"/>
<path d="M344.977 509.364C345.834 509.301 346.632 509.453 347.371 509.819C348.11 510.192 348.718 510.717 349.195 511.394C349.665 512.072 349.931 512.839 349.994 513.696C350.057 514.56 349.905 515.358 349.538 516.09C349.165 516.83 348.64 517.434 347.962 517.904C347.284 518.381 346.517 518.651 345.66 518.714C344.796 518.777 343.998 518.622 343.266 518.249C342.527 517.883 341.922 517.361 341.453 516.683C340.977 516.013 340.707 515.246 340.644 514.382C340.581 513.525 340.736 512.726 341.11 511.987C341.476 511.248 341.998 510.64 342.675 510.163C343.346 509.694 344.113 509.427 344.977 509.364Z" fill="url(#paint36_linear_9_90)"/>
</g>
<defs>
<linearGradient id="paint0_linear_9_90" x1="323" y1="555.481" x2="323" y2="56.2262" gradientUnits="userSpaceOnUse">
<stop offset="0.196628" stop-color="#0A33FF"/>
<stop offset="0.81159" stop-color="#269DFF"/>
</linearGradient>
<linearGradient id="paint1_linear_9_90" x1="322" y1="263" x2="322" y2="381" gradientUnits="userSpaceOnUse">
<stop stop-color="#00D338"/>
<stop offset="1" stop-color="#90D9B7"/>
</linearGradient>
<linearGradient id="paint2_linear_9_90" x1="62.2287" y1="322.945" x2="583.49" y2="322.945" gradientUnits="userSpaceOnUse">
<stop stop-color="#030D17"/>
<stop offset="0.395533" stop-color="#040E18"/>
<stop offset="0.698259" stop-color="#0990FF"/>
<stop offset="1" stop-color="#090DFF"/>
</linearGradient>
<linearGradient id="paint3_linear_9_90" x1="300.96" y1="595.099" x2="308.176" y2="496.677" gradientUnits="userSpaceOnUse">
<stop stop-color="#00FF62"/>
<stop offset="1" stop-color="#71E38A"/>
</linearGradient>
<linearGradient id="paint4_linear_9_90" x1="261.464" y1="589.074" x2="282.956" y2="492.764" gradientUnits="userSpaceOnUse">
<stop stop-color="#00FF62"/>
<stop offset="1" stop-color="#71E38A"/>
</linearGradient>
<linearGradient id="paint5_linear_9_90" x1="188.371" y1="560.855" x2="236.714" y2="474.868" gradientUnits="userSpaceOnUse">
<stop stop-color="#00FF62"/>
<stop offset="1" stop-color="#71E38A"/>
</linearGradient>
<linearGradient id="paint6_linear_9_90" x1="155.052" y1="538.773" x2="215.394" y2="460.766" gradientUnits="userSpaceOnUse">
<stop stop-color="#00FF62"/>
<stop offset="1" stop-color="#71E38A"/>
</linearGradient>
<linearGradient id="paint7_linear_9_90" x1="124.349" y1="511.08" x2="195.389" y2="442.709" gradientUnits="userSpaceOnUse">
<stop stop-color="#00FF62"/>
<stop offset="1" stop-color="#71E38A"/>
</linearGradient>
<linearGradient id="paint8_linear_9_90" x1="99.7436" y1="481.305" x2="179.959" y2="424.017" gradientUnits="userSpaceOnUse">
<stop stop-color="#00FF62"/>
<stop offset="1" stop-color="#71E38A"/>
</linearGradient>
<linearGradient id="paint9_linear_9_90" x1="63.3073" y1="410.312" x2="156.579" y2="378.548" gradientUnits="userSpaceOnUse">
<stop stop-color="#00FF62"/>
<stop offset="1" stop-color="#71E38A"/>
</linearGradient>
<linearGradient id="paint10_linear_9_90" x1="53.2026" y1="371.593" x2="150.089" y2="353.728" gradientUnits="userSpaceOnUse">
<stop stop-color="#00FF62"/>
<stop offset="1" stop-color="#71E38A"/>
</linearGradient>
<linearGradient id="paint11_linear_9_90" x1="50.4419" y1="290.456" x2="148.369" y2="301.212" gradientUnits="userSpaceOnUse">
<stop stop-color="#00FF62"/>
<stop offset="1" stop-color="#71E38A"/>
</linearGradient>
<linearGradient id="paint12_linear_9_90" x1="57.8947" y1="251.138" x2="153.226" y2="276.017" gradientUnits="userSpaceOnUse">
<stop stop-color="#00FF62"/>
<stop offset="1" stop-color="#71E38A"/>
</linearGradient>
<linearGradient id="paint13_linear_9_90" x1="70.4478" y1="214.587" x2="161.163" y2="253.069" gradientUnits="userSpaceOnUse">
<stop stop-color="#00FF62"/>
<stop offset="1" stop-color="#71E38A"/>
</linearGradient>
<linearGradient id="paint14_linear_9_90" x1="89.4275" y1="177.825" x2="173.598" y2="229.104" gradientUnits="userSpaceOnUse">
<stop stop-color="#00FF62"/>
<stop offset="1" stop-color="#71E38A"/>
</linearGradient>
<linearGradient id="paint15_linear_9_90" x1="112.835" y1="145.394" x2="188.666" y2="208.39" gradientUnits="userSpaceOnUse">
<stop stop-color="#00FF62"/>
<stop offset="1" stop-color="#71E38A"/>
</linearGradient>
<linearGradient id="paint16_linear_9_90" x1="139.688" y1="117.636" x2="205.556" y2="191.021" gradientUnits="userSpaceOnUse">
<stop stop-color="#00FF62"/>
<stop offset="1" stop-color="#71E38A"/>
</linearGradient>
<linearGradient id="paint17_linear_9_90" x1="171.309" y1="93.1771" x2="225.798" y2="175.393" gradientUnits="userSpaceOnUse">
<stop stop-color="#00FF62"/>
<stop offset="1" stop-color="#71E38A"/>
</linearGradient>
<linearGradient id="paint18_linear_9_90" x1="207.386" y1="73.0086" x2="249.321" y2="162.308" gradientUnits="userSpaceOnUse">
<stop stop-color="#00FF62"/>
<stop offset="1" stop-color="#71E38A"/>
</linearGradient>
<linearGradient id="paint19_linear_9_90" x1="283.809" y1="50.3927" x2="298.202" y2="148.02" gradientUnits="userSpaceOnUse">
<stop stop-color="#00FF62"/>
<stop offset="1" stop-color="#71E38A"/>
</linearGradient>
<linearGradient id="paint20_linear_9_90" x1="363.497" y1="50.7918" x2="349.103" y2="148.42" gradientUnits="userSpaceOnUse">
<stop stop-color="#00FF62"/>
<stop offset="1" stop-color="#71E38A"/>
</linearGradient>
<linearGradient id="paint21_linear_9_90" x1="402.447" y1="59.6887" x2="373.974" y2="154.164" gradientUnits="userSpaceOnUse">
<stop stop-color="#00FF62"/>
<stop offset="1" stop-color="#71E38A"/>
</linearGradient>
<linearGradient id="paint22_linear_9_90" x1="473.29" y1="93.1771" x2="418.8" y2="175.393" gradientUnits="userSpaceOnUse">
<stop stop-color="#00FF62"/>
<stop offset="1" stop-color="#71E38A"/>
</linearGradient>
<linearGradient id="paint23_linear_9_90" x1="504.91" y1="117.636" x2="439.042" y2="191.021" gradientUnits="userSpaceOnUse">
<stop stop-color="#00FF62"/>
<stop offset="1" stop-color="#71E38A"/>
</linearGradient>
<linearGradient id="paint24_linear_9_90" x1="533.514" y1="147.501" x2="457.683" y2="210.497" gradientUnits="userSpaceOnUse">
<stop stop-color="#00FF62"/>
<stop offset="1" stop-color="#71E38A"/>
</linearGradient>
<linearGradient id="paint25_linear_9_90" x1="555.884" y1="178.995" x2="471.713" y2="230.274" gradientUnits="userSpaceOnUse">
<stop stop-color="#00FF62"/>
<stop offset="1" stop-color="#71E38A"/>
</linearGradient>
<linearGradient id="paint26_linear_9_90" x1="587.05" y1="252.464" x2="491.718" y2="277.343" gradientUnits="userSpaceOnUse">
<stop stop-color="#00FF62"/>
<stop offset="1" stop-color="#71E38A"/>
</linearGradient>
<linearGradient id="paint27_linear_9_90" x1="594.306" y1="291.819" x2="496.38" y2="302.575" gradientUnits="userSpaceOnUse">
<stop stop-color="#00FF62"/>
<stop offset="1" stop-color="#71E38A"/>
</linearGradient>
<linearGradient id="paint28_linear_9_90" x1="591.148" y1="372.941" x2="494.262" y2="355.076" gradientUnits="userSpaceOnUse">
<stop stop-color="#00FF62"/>
<stop offset="1" stop-color="#71E38A"/>
</linearGradient>
<linearGradient id="paint29_linear_9_90" x1="580.85" y1="411.609" x2="487.578" y2="379.845" gradientUnits="userSpaceOnUse">
<stop stop-color="#00FF62"/>
<stop offset="1" stop-color="#71E38A"/>
</linearGradient>
<linearGradient id="paint30_linear_9_90" x1="565.667" y1="447.144" x2="477.99" y2="402.146" gradientUnits="userSpaceOnUse">
<stop stop-color="#00FF62"/>
<stop offset="1" stop-color="#71E38A"/>
</linearGradient>
<linearGradient id="paint31_linear_9_90" x1="544.059" y1="482.42" x2="463.844" y2="425.132" gradientUnits="userSpaceOnUse">
<stop stop-color="#00FF62"/>
<stop offset="1" stop-color="#71E38A"/>
</linearGradient>
<linearGradient id="paint32_linear_9_90" x1="518.35" y1="513.054" x2="447.31" y2="444.683" gradientUnits="userSpaceOnUse">
<stop stop-color="#00FF62"/>
<stop offset="1" stop-color="#71E38A"/>
</linearGradient>
<linearGradient id="paint33_linear_9_90" x1="489.546" y1="538.773" x2="429.205" y2="460.766" gradientUnits="userSpaceOnUse">
<stop stop-color="#00FF62"/>
<stop offset="1" stop-color="#71E38A"/>
</linearGradient>
<linearGradient id="paint34_linear_9_90" x1="456.228" y1="560.855" x2="407.885" y2="474.868" gradientUnits="userSpaceOnUse">
<stop stop-color="#00FF62"/>
<stop offset="1" stop-color="#71E38A"/>
</linearGradient>
<linearGradient id="paint35_linear_9_90" x1="418.777" y1="578.332" x2="383.477" y2="486.198" gradientUnits="userSpaceOnUse">
<stop stop-color="#00FF62"/>
<stop offset="1" stop-color="#71E38A"/>
</linearGradient>
<linearGradient id="paint36_linear_9_90" x1="351.389" y1="597.124" x2="344.173" y2="498.703" gradientUnits="userSpaceOnUse">
<stop stop-color="#00FF62"/>
<stop offset="1" stop-color="#71E38A"/>
</linearGradient>
<clipPath id="clip0_9_90">
<rect width="663" height="663" fill="white"/>
</clipPath>
</defs>
</svg>
